<svg width="26" height="23" viewBox="0 0 26 23" fill="none" xmlns="http://www.w3.org/2000/svg">
<path d="M25.2974 12.3351C24.3289 7.72621 21.3181 4.49966 17.2908 2.22025C20.3774 4.43861 24.7095 9.15554 22.1489 13.3167C19.9828 16.6497 14.7224 15.9969 11.8369 14.4126C8.41457 12.5339 4.13197 8.30702 8.35578 4.1756C11.0943 1.50168 19.8049 4.49966 18.2717 8.49645C17.3774 10.8213 13.8962 10.3046 12.3305 9.16806C11.1763 8.32894 10.2047 6.88709 10.7199 5.39827C10.8839 4.92079 10.8607 4.18029 10.1938 4.7251C9.70183 5.13213 9.44654 5.80218 9.3599 6.42839C8.63118 11.64 17.8075 15.6807 20.5306 10.6381C21.9431 8.02053 19.6533 4.21943 16.7709 2.6633C14.6048 1.48915 12.3506 0.664118 9.58734 0.864506C5.16859 1.17761 1.46154 3.97991 0.995838 8.54812C0.531683 13.0881 3.53167 17.1742 7.06388 19.618C10.7771 22.1854 15.7683 23.8778 20.3356 22.3467C24.4294 20.9737 26.1205 16.2192 25.2974 12.3383" fill="white"/>
</svg>
